<?xml version="1.0" encoding="UTF-8" standalone="no"?>
<!-- Created with Inkscape (http://www.inkscape.org/) -->

<svg
   xmlns:osb="http://www.openswatchbook.org/uri/2009/osb"
   xmlns:dc="http://purl.org/dc/elements/1.1/"
   xmlns:cc="http://creativecommons.org/ns#"
   xmlns:rdf="http://www.w3.org/1999/02/22-rdf-syntax-ns#"
   xmlns:svg="http://www.w3.org/2000/svg"
   xmlns="http://www.w3.org/2000/svg"
   xmlns:sodipodi="http://sodipodi.sourceforge.net/DTD/sodipodi-0.dtd"
   xmlns:inkscape="http://www.inkscape.org/namespaces/inkscape"
   width="210mm"
   height="297mm"
   viewBox="0 0 210 297"
   version="1.1"
   id="svg8"
   inkscape:version="0.92.3 (2405546, 2018-03-11)"
   sodipodi:docname="jr.svg">
  <defs
     id="defs2">
    <marker
       inkscape:stockid="ExperimentalArrow"
       orient="auto-start-reverse"
       refY="3.0"
       refX="5.0"
       id="ExperimentalArrow"
       inkscape:isstock="true">
      <path
         id="path3360"
         d="m 10,3 -10,3 0,-6 z"
         style="fill:context-stroke;stroke:#8428e8;stroke-opacity:0.95121951" />
    </marker>
    <marker
       inkscape:stockid="Torso"
       orient="auto"
       refY="0.0"
       refX="0.0"
       id="Torso"
       style="overflow:visible"
       inkscape:isstock="true">
      <g
         id="g3333"
         transform="scale(0.7)"
         style="stroke:#8428e8;stroke-opacity:0.95121951;fill:#8428e8;fill-opacity:0.95121951">
        <path
           id="path3319"
           d="M -4.7792281,-3.2395420 C -2.4288541,-2.8736027 0.52103922,-1.3019943 0.25792722,0.38794346 C -0.0051877922,2.0778819 -2.2126741,2.6176539 -4.5630471,2.2517169 C -6.9134221,1.8857769 -8.5210350,0.75201414 -8.2579220,-0.93792336 C -7.9948090,-2.6278615 -7.1296041,-3.6054813 -4.7792281,-3.2395420 z "
           style="fill:#8428e8;fill-opacity:0.95121951;fill-rule:evenodd;stroke:#8428e8;stroke-width:1.25;stroke-opacity:0.95121951" />
        <path
           id="path3321"
           d="M 4.4598789,0.088665736 C -2.5564571,-4.3783320 5.2248769,-3.9061806 -0.84829578,-8.7197331"
           style="fill:#8428e8;fill-opacity:0.95121951;fill-rule:evenodd;stroke:#8428e8;stroke-width:1pt;stroke-opacity:0.95121951" />
        <path
           id="path3323"
           d="M 4.9298719,0.057520736 C -1.3872731,1.7494689 1.8027579,5.4782079 -4.9448731,7.5462725"
           style="fill:#8428e8;fill-opacity:0.95121951;fill-rule:evenodd;stroke:#8428e8;stroke-width:1pt;stroke-opacity:0.95121951" />
        <rect
           id="rect3325"
           transform="matrix(0.527536,-0.849533,0.887668,0.460484,0,0)"
           y="-1.7408575"
           x="-10.391706"
           height="2.7608147"
           width="2.6366582"
           style="fill-rule:evenodd;stroke-width:1pt;stroke:#8428e8;stroke-opacity:0.95121951;fill:#8428e8;fill-opacity:0.95121951" />
        <rect
           id="rect3327"
           transform="matrix(0.671205,-0.741272,0.790802,0.612072,0,0)"
           y="-7.9629307"
           x="4.9587269"
           height="2.8614161"
           width="2.7327356"
           style="fill-rule:evenodd;stroke-width:1pt;stroke:#8428e8;stroke-opacity:0.95121951;fill:#8428e8;fill-opacity:0.95121951" />
        <path
           id="path3329"
           transform="matrix(0,-1.109517,1.109517,0,25.96648,19.71619)"
           d="M 16.779951 -28.685045 A 0.60731727 0.60731727 0 1 0 15.565317,-28.685045 A 0.60731727 0.60731727 0 1 0 16.779951 -28.685045 z"
           style="fill:#8428e8;fill-opacity:0.95121951;fill-rule:evenodd;stroke:#8428e8;stroke-width:1pt;stroke-opacity:0.95121951" />
        <path
           id="path3331"
           transform="matrix(0,-1.109517,1.109517,0,26.82450,16.99126)"
           d="M 16.779951 -28.685045 A 0.60731727 0.60731727 0 1 0 15.565317,-28.685045 A 0.60731727 0.60731727 0 1 0 16.779951 -28.685045 z"
           style="fill:#8428e8;fill-opacity:0.95121951;fill-rule:evenodd;stroke:#8428e8;stroke-width:1pt;stroke-opacity:0.95121951" />
      </g>
    </marker>
    <marker
       inkscape:stockid="TriangleInM"
       orient="auto"
       refY="0.0"
       refX="0.0"
       id="TriangleInM"
       style="overflow:visible"
       inkscape:isstock="true">
      <path
         id="path3243"
         d="M 5.77,0.0 L -2.88,5.0 L -2.88,-5.0 L 5.77,0.0 z "
         style="fill-rule:evenodd;stroke:#8428e8;stroke-width:1pt;stroke-opacity:0.95121951;fill:#8428e8;fill-opacity:0.95121951"
         transform="scale(-0.4)" />
    </marker>
    <marker
       inkscape:stockid="DotS"
       orient="auto"
       refY="0.0"
       refX="0.0"
       id="DotS"
       style="overflow:visible"
       inkscape:isstock="true">
      <path
         id="path3174"
         d="M -2.5,-1.0 C -2.5,1.7600000 -4.7400000,4.0 -7.5,4.0 C -10.260000,4.0 -12.5,1.7600000 -12.5,-1.0 C -12.5,-3.7600000 -10.260000,-6.0 -7.5,-6.0 C -4.7400000,-6.0 -2.5,-3.7600000 -2.5,-1.0 z "
         style="fill-rule:evenodd;stroke:#8428e8;stroke-width:1pt;stroke-opacity:0.95121951;fill:#8428e8;fill-opacity:0.95121951"
         transform="scale(0.2) translate(7.4, 1)" />
    </marker>
    <marker
       inkscape:stockid="Arrow1Sstart"
       orient="auto"
       refY="0.0"
       refX="0.0"
       id="Arrow1Sstart"
       style="overflow:visible"
       inkscape:isstock="true">
      <path
         id="path3119"
         d="M 0.0,0.0 L 5.0,-5.0 L -12.5,0.0 L 5.0,5.0 L 0.0,0.0 z "
         style="fill-rule:evenodd;stroke:#8428e8;stroke-width:1pt;stroke-opacity:0.95121951;fill:#8428e8;fill-opacity:0.95121951"
         transform="scale(0.2) translate(6,0)" />
    </marker>
    <marker
       inkscape:stockid="Arrow1Mstart"
       orient="auto"
       refY="0.0"
       refX="0.0"
       id="Arrow1Mstart"
       style="overflow:visible"
       inkscape:isstock="true">
      <path
         id="path3113"
         d="M 0.0,0.0 L 5.0,-5.0 L -12.5,0.0 L 5.0,5.0 L 0.0,0.0 z "
         style="fill-rule:evenodd;stroke:#8428e8;stroke-width:1pt;stroke-opacity:0.95121951;fill:#8428e8;fill-opacity:0.95121951"
         transform="scale(0.4) translate(10,0)" />
    </marker>
    <marker
       inkscape:stockid="Arrow1Lstart"
       orient="auto"
       refY="0.0"
       refX="0.0"
       id="Arrow1Lstart"
       style="overflow:visible"
       inkscape:isstock="true">
      <path
         id="path3107"
         d="M 0.0,0.0 L 5.0,-5.0 L -12.5,0.0 L 5.0,5.0 L 0.0,0.0 z "
         style="fill-rule:evenodd;stroke:#8428e8;stroke-width:1pt;stroke-opacity:0.95121951;fill:#8428e8;fill-opacity:0.95121951"
         transform="scale(0.8) translate(12.5,0)" />
    </marker>
    <linearGradient
       id="linearGradient2381"
       osb:paint="solid">
      <stop
         style="stop-color:#8428e8;stop-opacity:1;"
         offset="0"
         id="stop2379" />
    </linearGradient>
    <inkscape:path-effect
       effect="spiro"
       id="path-effect877"
       is_visible="true" />
    <inkscape:path-effect
       effect="spiro"
       id="path-effect873"
       is_visible="true" />
    <inkscape:path-effect
       effect="spiro"
       id="path-effect869"
       is_visible="true" />
    <inkscape:path-effect
       effect="spiro"
       id="path-effect863"
       is_visible="true" />
    <inkscape:path-effect
       effect="spiro"
       id="path-effect859"
       is_visible="true" />
    <inkscape:path-effect
       effect="spiro"
       id="path-effect857"
       is_visible="true" />
    <inkscape:path-effect
       effect="spiro"
       id="path-effect853"
       is_visible="true" />
    <inkscape:path-effect
       effect="spiro"
       id="path-effect849"
       is_visible="true" />
    <inkscape:path-effect
       effect="spiro"
       id="path-effect845"
       is_visible="true" />
    <inkscape:path-effect
       effect="spiro"
       id="path-effect831"
       is_visible="true" />
    <inkscape:path-effect
       effect="spiro"
       id="path-effect827"
       is_visible="true" />
  </defs>
  <sodipodi:namedview
     id="base"
     pagecolor="#ffffff"
     bordercolor="#666666"
     borderopacity="1.0"
     inkscape:pageopacity="0.0"
     inkscape:pageshadow="2"
     inkscape:zoom="0.9899495"
     inkscape:cx="319.39651"
     inkscape:cy="750.24235"
     inkscape:document-units="mm"
     inkscape:current-layer="layer1"
     showgrid="false"
     inkscape:window-width="1600"
     inkscape:window-height="837"
     inkscape:window-x="-8"
     inkscape:window-y="32"
     inkscape:window-maximized="1" />
  <metadata
     id="metadata5">
    <rdf:RDF>
      <cc:Work
         rdf:about="">
        <dc:format>image/svg+xml</dc:format>
        <dc:type
           rdf:resource="http://purl.org/dc/dcmitype/StillImage" />
        <dc:title></dc:title>
      </cc:Work>
    </rdf:RDF>
  </metadata>
  <g
     inkscape:label="Taso 1"
     inkscape:groupmode="layer"
     id="layer1">
    <path
       style="opacity:1;fill:none;fill-opacity:1;stroke:#8428e8;stroke-width:5.5;stroke-linecap:butt;stroke-linejoin:round;stroke-miterlimit:4;stroke-dasharray:none;stroke-dashoffset:0;stroke-opacity:1;paint-order:stroke fill markers"
       id="path3433"
       d="m 80.997122,36.877283 c -0.441438,7.094358 -0.57345,14.203275 -0.745402,21.307787 -0.0481,2.94167 -0.106035,5.883193 -0.144286,8.825008 -0.04334,3.333052 -0.1002,6.666164 -0.100472,9.999498 -0.0011,11.582215 0.390019,23.157704 0.890304,34.727244 0,0 -1.103963,0.56526 -1.103963,0.56526 v 0 C 79.845251,94.430616 79.568436,76.561666 79.25423,58.693316 79.084211,51.841987 78.959053,44.985455 78.508827,38.145132 c 0,0 2.488295,-1.267849 2.488295,-1.267849 z"
       inkscape:connector-curvature="0" />
    <path
       style="opacity:1;fill:none;fill-opacity:1;stroke:#8428e8;stroke-width:5.5;stroke-linecap:butt;stroke-linejoin:round;stroke-miterlimit:4;stroke-dasharray:none;stroke-dashoffset:0;stroke-opacity:1;paint-order:stroke fill markers"
       id="path3437"
       d="m 79.742206,37.860464 c 1.576266,-0.77571 3.136784,-1.627687 4.765606,-2.287571 3.734546,-1.512975 7.398912,-2.702902 11.29605,-3.783968 2.316249,-0.64253 4.663488,-1.167619 6.995238,-1.751428 5.12632,-1.014251 7.56066,-1.614088 12.63575,-2.191853 1.60467,-0.182682 3.21686,-0.327742 4.83152,-0.362331 1.32688,-0.02842 4.7798,-0.03563 6.13873,1.00597 0.54942,0.421118 0.66507,1.214281 0.9976,1.821423 -0.22692,1.021106 -0.29911,2.089407 -0.68074,3.063319 -0.5589,1.426306 -1.33267,2.76325 -2.11786,4.078618 -2.89333,4.846963 -5.81151,8.536115 -9.36224,13.068668 -5.81473,7.422592 -7.05703,8.740317 -13.11214,15.859868 -4.685595,5.441948 -9.594902,10.682256 -14.462222,15.959654 -0.436724,0.473519 -3.340621,3.550208 -4.003026,4.570272 -0.180155,0.277431 -0.213228,0.626284 -0.319842,0.939427 0.244988,0.114033 0.472591,0.27741 0.73496,0.342101 1.030033,0.253965 2.086041,0.388898 3.123771,0.609314 1.790422,0.380294 3.581183,0.761349 5.359998,1.19267 5.404183,1.310386 9.128711,2.376739 14.517631,3.994534 2.54566,0.764228 5.07746,1.573863 7.61619,2.360795 2.29128,0.739939 4.58255,1.479878 6.87383,2.21982 0,0 -1.09653,0.744024 -1.09653,0.744024 v 0 c -2.24449,-0.770732 -4.48898,-1.541463 -6.73347,-2.312191 -2.53517,-0.788115 -5.05658,-1.621928 -7.60552,-2.364343 -5.06596,-1.475545 -9.752699,-2.698819 -14.921006,-3.70077 -1.90318,-0.368959 -3.82378,-0.644377 -5.743403,-0.915069 -1.197594,-0.168878 -2.430142,-0.119624 -3.605848,-0.403307 -0.360724,-0.08704 -0.587861,-0.453001 -0.881795,-0.679503 0.179229,-0.373893 0.288409,-0.79035 0.537681,-1.121685 0.646914,-0.85988 4.377891,-4.588299 4.626663,-4.84233 5.223976,-5.334445 10.412777,-10.706079 15.338358,-16.320815 2.20051,-2.576288 4.45289,-5.109168 6.60154,-7.728865 4.02154,-4.903171 8.03067,-10.105361 11.56153,-15.388233 1.41967,-2.124107 4.1173,-6.506879 5.09096,-9.204373 0.326,-0.903176 0.37639,-1.883171 0.56459,-2.824757 -0.2714,-0.576051 -0.33237,-1.311823 -0.8142,-1.72815 -1.26325,-1.09151 -4.39096,-1.195546 -5.70333,-1.207228 -1.54587,-0.01376 -3.09296,0.08533 -4.63209,0.230315 -5.07556,0.478123 -7.24681,1.037534 -12.39584,2.0306 -2.351382,0.602231 -4.722713,1.131372 -7.05416,1.806697 -5.935941,1.719395 -11.745442,3.915441 -17.135107,6.958216 0,0 2.172173,-1.737535 2.172173,-1.737535 z"
       inkscape:connector-curvature="0" />
    <path
       style="opacity:1;fill:none;fill-opacity:1;stroke:#8428e8;stroke-width:7.4;stroke-linecap:butt;stroke-linejoin:round;stroke-miterlimit:4;stroke-dasharray:none;stroke-dashoffset:0;stroke-opacity:1;paint-order:stroke fill markers"
       id="path3470"
       d="m 66.084859,42.478162 c 0.914717,5.637038 0.660286,11.397692 0.627864,17.079344 -0.0062,10.983261 0.0302,21.966168 -0.130487,32.948665 -0.09571,6.541744 -0.191617,11.445089 -0.499393,17.887749 -0.10404,2.17782 -0.261729,4.35274 -0.392594,6.52912 -0.336958,3.74687 -0.54037,7.53339 -1.286021,11.23138 -0.17063,0.84622 -0.452239,2.04599 -0.921155,2.83735 -0.152532,0.25742 -0.387257,0.45624 -0.580884,0.68436 -0.993397,0.5329 -1.918066,1.22094 -2.98019,1.59872 -0.519536,0.18478 -1.719493,-0.83214 -1.898529,-1.00479 -1.065384,-1.02738 -2.270992,-2.70022 -2.827808,-3.9977 -0.769374,-1.79278 -1.284042,-3.68446 -1.926061,-5.52668 -0.701222,-2.58162 -1.402445,-5.16324 -2.103665,-7.74486 0,0 1.015421,-0.55545 1.015421,-0.55545 v 0 c 0.833083,2.50378 1.666166,5.00755 2.499248,7.51131 1.6318,3.48367 1.942667,4.93704 4.102386,7.56145 0.56506,0.68664 1.559391,1.64123 2.46321,2.00429 0.244203,0.0981 0.929002,-0.1158 0.782762,0.103 -0.351089,0.52527 -1.043771,0.71221 -1.565653,1.06831 0.225403,-0.21313 0.493172,-0.38893 0.676214,-0.63939 0.573971,-0.78536 0.974458,-2.03253 1.219996,-2.90929 1.058537,-3.77978 1.503561,-7.70465 2.042499,-11.57894 0.232801,-2.22615 0.505002,-4.44853 0.698405,-6.67844 0.545166,-6.28568 0.831463,-11.790604 1.011946,-18.142879 0.212183,-7.468018 0.255887,-14.792902 0.04329,-22.26315 -0.09864,-3.465894 -0.31981,-6.927218 -0.479716,-10.390828 -0.219091,-2.578727 -0.406266,-5.160362 -0.657273,-7.736178 -0.279673,-2.869986 -0.627682,-5.777373 -1.412483,-8.56152 0,0 2.478672,-1.314953 2.478672,-1.314953 z"
       inkscape:connector-curvature="0" />
  </g>
</svg>
